<svg width="14" height="14" viewBox="0 0 14 14" fill="none" xmlns="http://www.w3.org/2000/svg">
<path d="M1.16444 1.56889L3.14666 3.55111C1.89373 4.35783 0.869726 5.47367 0.173325 6.79111L0.0577698 7L0.173325 7.21333C1.6711 9.98222 4.29777 11.6578 7.20443 11.6578C8.33895 11.6575 9.45873 11.4008 10.48 10.9067L12.7022 13.1289L13.48 12.4622L1.92444 0.906666L1.16444 1.56889ZM5.49777 5.90222L8.45332 8.85778C8.11938 9.06448 7.73495 9.1752 7.34221 9.17778C7.05685 9.17778 6.7743 9.12136 6.51082 9.01175C6.24735 8.90215 6.00815 8.74152 5.80699 8.53912C5.60582 8.33672 5.44667 8.09653 5.33868 7.83239C5.2307 7.56825 5.17601 7.28536 5.17777 7C5.18278 6.6118 5.2934 6.2323 5.49777 5.90222ZM4.85332 5.25778C4.43752 5.84418 4.24262 6.5588 4.30315 7.2751C4.36368 7.99141 4.67573 8.6632 5.18404 9.17151C5.69235 9.67982 6.36413 9.99186 7.08044 10.0524C7.79675 10.1129 8.51137 9.91803 9.09777 9.50222L9.80888 10.2133C8.98567 10.5652 8.0997 10.7466 7.20443 10.7467C4.70221 10.7467 2.42666 9.35111 1.0711 7C1.72164 5.8481 2.65854 4.88364 3.7911 4.2L4.85332 5.25778Z" fill="#D885A3"/>
</svg>
